<svg width="24" height="24" fill="none" viewBox="0 0 24 24" xmlns="http://www.w3.org/2000/svg" class="widgetButtonIcon-0-2-1292"><path fill-rule="evenodd" clip-rule="evenodd" d="M12.0047 0.494537C11.5716 0.494537 11.2207 0.845542 11.2207 1.27853V3.36918C11.2207 3.80217 11.5716 4.15317 12.0047 4.15317C12.4378 4.15317 12.7887 3.80217 12.7887 3.36918V1.27853C12.7887 0.845542 12.4378 0.494537 12.0047 0.494537Z M12.0047 19.8559C11.5716 19.8559 11.2207 20.2069 11.2207 20.6399V22.7305C11.2207 23.1635 11.5716 23.5145 12.0047 23.5145C12.4378 23.5145 12.7887 23.1635 12.7887 22.7305V20.6399C12.7887 20.2069 12.4378 19.8559 12.0047 19.8559Z M4.94874 12.0045C4.94874 8.10757 8.10769 4.94852 12.0047 4.94852C15.9017 4.94852 19.0606 8.10757 19.0606 12.0045C19.0606 15.9014 15.9017 19.0604 12.0047 19.0604C8.10769 19.0604 4.94874 15.9014 4.94874 12.0045ZM12.0047 6.51651C8.97386 6.51651 6.51673 8.97354 6.51673 12.0045C6.51673 15.0354 8.97386 17.4924 12.0047 17.4924C15.0355 17.4924 17.4926 15.0354 17.4926 12.0045C17.4926 8.97354 15.0355 6.51651 12.0047 6.51651Z M1.27862 12.7885C0.845538 12.7885 0.494629 12.4376 0.494629 12.0045C0.494629 11.5714 0.845538 11.2205 1.27862 11.2205H3.36927C3.80236 11.2205 4.15327 11.5714 4.15327 12.0045C4.15327 12.4376 3.80236 12.7885 3.36927 12.7885H1.27862Z M20.6401 12.7885C20.207 12.7885 19.8561 12.4376 19.8561 12.0045C19.8561 11.5714 20.207 11.2205 20.6401 11.2205H22.7308C23.1636 11.2205 23.5147 11.5714 23.5147 12.0045C23.5147 12.4376 23.1636 12.7885 22.7308 12.7885H20.6401Z M17.5564 6.45278C17.8627 6.75901 18.3591 6.75895 18.6651 6.45278L20.1435 4.97447C20.4497 4.6683 20.4497 4.17197 20.1435 3.86573C19.8372 3.55949 19.3408 3.55957 19.0346 3.86573L17.5564 5.34405C17.2502 5.65022 17.2502 6.14654 17.5564 6.45278Z M3.8659 20.1433C4.17215 20.4496 4.66853 20.4495 4.97452 20.1433L6.45293 18.665C6.75918 18.3589 6.75918 17.8625 6.45293 17.5563C6.14668 17.25 5.65031 17.2501 5.34406 17.5563L3.8659 19.0346C3.55966 19.3408 3.55966 19.8371 3.8659 20.1433Z M6.45293 5.34405C6.75892 5.65022 6.75918 6.14654 6.45293 6.45278C6.14668 6.75902 5.65031 6.75895 5.34406 6.45278L3.8659 4.97447C3.55966 4.66829 3.55966 4.17197 3.8659 3.86573C4.17215 3.55949 4.66827 3.55957 4.97452 3.86573L6.45293 5.34405Z M20.1435 19.0346C20.4495 19.3408 20.4497 19.8371 20.1435 20.1433C19.8372 20.4496 19.3408 20.4495 19.0346 20.1433L17.5564 18.665C17.2502 18.3588 17.2502 17.8625 17.5564 17.5563C17.8627 17.25 18.3588 17.2501 18.6651 17.5563L20.1435 19.0346Z"></path></svg>
